Coordinates
version=1
nRows=14
nColumns=36
inDegrees=yes

Units are S.I. units (second, meters, Newtons, ...)
If the header above contains a line with 'inDegrees', this indicates whether rotational values are in degrees (yes) or radians (no).

endheader
time	pelvis_tilt	pelvis_list	pelvis_rotation	pelvis_tx	pelvis_ty	pelvis_tz	hip_flexion_r	hip_adduction_r	hip_rotation_r	knee_angle_r	knee_angle_r_beta	ankle_angle_r	subtalar_angle_r	mtp_angle_r	hip_flexion_l	hip_adduction_l	hip_rotation_l	knee_angle_l	knee_angle_l_beta	ankle_angle_l	subtalar_angle_l	mtp_angle_l	lumbar_extension	lumbar_bending	lumbar_rotation	arm_flex_r	arm_add_r	arm_rot_r	elbow_flex_r	pro_sup_r	arm_flex_l	arm_add_l	arm_rot_l	elbow_flex_l	pro_sup_l
      1.15833330	    -24.83880581	      2.54591365	     -1.43068905	     -0.83462007	      1.11573995	     -0.08763521	     51.84260551	     -3.56849388	      6.44414299	     69.03923554	      1.20496197	     45.25354499	     -6.79138114	     -7.49999987	     50.41851301	     -1.10246995	      2.09322026	     69.80434022	      1.21831557	     44.78567983	     -5.31913317	     -7.49999987	    -29.54758498	     -0.76712239	     -1.73153091	     37.88322316	    -19.11382954	     12.20336306	     54.00114365	     84.30132653	     43.33651696	    -17.19061439	     17.06944275	     39.98883394	     64.82193269
      1.16250000	    -24.85636321	      2.40064339	     -1.33953838	     -0.82947339	      1.11523331	     -0.08613821	     51.23091305	     -3.31114745	      6.38498507	     68.54619236	      1.19635675	     45.57093028	     -6.53314301	     -7.49999987	     50.08710238	     -1.39867157	      2.11214244	     69.54948070	      1.21386743	     44.91545838	     -4.78609544	     -7.49999987	    -29.24320226	     -0.77450680	     -1.80079825	     38.41319428	    -19.02797264	     12.66265691	     55.62344508	     81.47051942	     43.71221068	    -17.33684250	     16.70166639	     41.64815580	     64.11312843
      1.16666670	    -24.97256250	      2.33869814	     -1.21015576	     -0.82337502	      1.11330627	     -0.08569780	     50.76903836	     -3.16422528	      6.36809198	     68.28717368	      1.19183602	     45.82811374	     -6.57247122	     -7.49999987	     49.73721370	     -1.49181906	      2.14172242	     69.33982379	      1.21020823	     44.98329027	     -4.75260092	     -7.49999987	    -28.38089573	     -0.89804712	     -1.80261098	     38.70212862	    -18.79585828	     12.84160413	     55.93783142	     81.53214935	     44.26629263	    -17.12407228	     16.75995672	     41.99494168	     64.12586945
      1.17083330	    -24.46478383	      2.18374884	     -1.12228952	     -0.81714814	      1.11723193	     -0.08797845	     49.49068634	     -3.16101556	      6.21389096	     67.80644265	      1.18344568	     45.90294140	     -6.58632716	     -7.49999987	     48.60711783	     -1.52224091	      2.12389235	     69.09849642	      1.20599627	     45.03950271	     -4.28635507	     -7.49999987	    -28.51648862	     -0.75093493	     -1.71888541	     39.05978308	    -19.51403568	     14.09687946	     57.78764668	     82.05431891	     44.70327243	    -17.32025790	     17.64896938	     43.60411519	     64.21186195
      1.17500000	    -24.20635387	      2.22283904	     -1.03210217	     -0.81060730	      1.11758392	     -0.08682021	     48.55201491	     -3.21323068	      6.21816320	     67.45905233	      1.17738257	     46.19461731	     -6.23557081	     -7.49999987	     47.55631413	     -1.45554548	      2.07674013	     68.67557525	      1.19861490	     45.20906470	     -4.10261375	     -7.49999987	    -27.99989225	     -0.79548142	     -1.82918324	     39.24113966	    -19.63765292	     14.91236779	     58.69304867	     79.46459773	     44.69269584	    -17.43634310	     17.93984832	     44.80928815	     63.50882980
      1.17916670	    -24.32484167	      2.19617254	     -1.00214122	     -0.80683738	      1.11643285	     -0.08520377	     48.09960498	     -3.20097044	      6.15939418	     67.30845263	      1.17475411	     46.47386477	     -6.17826189	     -7.49999987	     47.13984890	     -1.52594966	      2.15440858	     68.51021237	      1.19572878	     45.40259493	     -4.24116236	     -7.49999987	    -27.02526510	     -0.83427422	     -1.76935062	     39.12850735	    -19.73676485	     15.04789082	     59.91766971	     78.14504865	     44.49628791	    -17.60487755	     17.99889796	     46.49947156	     63.22767984
      1.18333330	    -24.24439066	      2.26277982	     -1.05940930	     -0.80138360	      1.11538943	     -0.08260715	     47.51341765	     -3.16429330	      6.21832630	     67.29029948	      1.17443728	     46.95345615	     -6.11177037	     -7.49999987	     46.55305581	     -1.72029795	      2.00834509	     68.36144945	      1.19313237	     45.75162709	     -3.95404812	     -7.49999987	    -26.33391232	     -1.21032866	     -1.61287054	     38.78833550	    -20.04059295	     15.09065165	     61.71645977	     83.21067639	     45.16862779	    -18.41546926	     20.71639912	     47.70287500	     63.38242699
      1.18750000	    -24.55001810	      2.37562971	     -0.98770388	     -0.79766347	      1.11212804	     -0.08297249	     47.55072995	     -3.26549134	      6.23282375	     67.46531891	      1.17749195	     47.49942949	     -5.90249582	     -7.49999987	     46.52939153	     -1.77197426	      1.84159893	     68.32950789	      1.19257489	     46.18989256	     -3.83642148	     -7.49999987	    -24.98332278	     -1.38407726	     -1.79873591	     38.96378116	    -20.31001287	     16.31570511	     63.18620649	     80.31047198	     45.16150160	    -18.89150626	     21.40904149	     49.57294322	     62.99486315
      1.19166670	    -24.68120265	      2.40741887	     -1.00982848	     -0.79564101	      1.11661588	     -0.08564480	     47.33618331	     -3.44579807	      6.21122006	     67.16577747	      1.17226396	     47.50639199	     -5.86289192	     -7.49999987	     46.24187142	     -1.75204846	      1.70418870	     67.90099601	      1.18509595	     46.21591074	     -3.92646254	     -7.49999987	    -23.84843778	     -1.34055088	     -1.75618140	     39.37793325	    -20.17629129	     16.40145194	     63.66585280	     80.37148749	     45.63999838	    -18.79388620	     21.51543683	     50.06684019	     63.03299224
      1.19583330	    -25.21307257	      2.82917562	     -1.23022352	     -0.79331890	      1.12132255	     -0.08929713	     47.74178299	     -3.93449500	      6.60074286	     66.76648920	      1.16529507	     47.02720922	     -5.50932932	     -7.49999987	     46.19542297	     -1.19389138	      1.40584329	     67.01863078	      1.16969577	     45.66583043	     -4.71071735	     -7.49999987	    -22.79182030	     -1.62777819	     -1.61657647	     39.35841410	    -21.28089182	     17.48373810	     66.50833409	     81.00624843	     45.81430089	    -19.75026695	     22.92774152	     53.43399002	     63.42492995
      1.20000000	    -24.59423677	      2.83095354	     -1.27440363	     -0.78187828	      1.13217453	     -0.08816891	     45.79842672	     -4.19032105	      6.44972619	     65.00081109	      1.13447817	     46.07998459	     -5.30649484	     -7.49999987	     44.34832291	     -0.98770377	      1.42793792	     65.22499396	      1.13839090	     45.10081433	     -4.57635132	     -7.49999987	    -23.08828432	     -1.46727449	     -1.67092338	     39.71447246	    -21.29903571	     17.63869117	     67.36367844	     81.38926815	     46.51540538	    -19.98453722	     23.41422568	     54.48784764	     63.60208607
      1.20416670	    -24.47427694	      2.92041828	     -1.31814042	     -0.77595122	      1.13380736	     -0.08607554	     44.64839007	     -4.21976382	      6.38227153	     63.67235857	      1.11129230	     45.65720754	     -5.12039366	     -7.49999987	     43.04496735	     -0.91513183	      1.28463195	     63.71702523	      1.11207188	     44.84641428	     -4.41370914	     -7.49999987	    -22.64051596	     -1.50803715	     -1.79146440	     39.73079820	    -21.28333062	     18.03716684	     68.34108650	     80.34091198	     46.93276440	    -20.17936807	     23.64054626	     55.58757155	     63.46614347
      1.20833330	    -23.36886832	      2.85260760	     -1.38013632	     -0.77228304	      1.13598900	     -0.08645716	     42.52387836	     -4.21517525	      6.19682417	     62.54412962	      1.09160099	     45.62964671	     -4.92847963	     -7.49999987	     41.00088621	     -1.03047841	      1.18877602	     62.73431870	      1.09492042	     44.60500102	     -4.41286066	     -7.49999987	    -23.48809331	     -1.53541148	     -1.66940617	     40.21848358	    -21.81298358	     18.87739859	     70.03031860	     80.14094026	     47.83112236	    -20.46078130	     24.65842222	     57.34519856	     63.64016125
      1.21250000	    -23.22305805	      2.84292728	     -1.42525213	     -0.76912525	      1.13652986	     -0.08554012	     41.69477621	     -4.16245042	      6.25746459	     61.90660684	      1.08047412	     45.75722552	     -4.87174479	     -7.49999987	     40.24958322	     -1.18236139	      0.94450740	     62.19950694	      1.08558619	     44.84460871	     -4.04360042	     -7.49999987	    -22.99109284	     -1.50911852	     -1.55987249	     40.24468671	    -22.07990626	     19.30151431	     71.59459904	     79.65456398	     48.14664811	    -20.69153381	     25.24125784	     59.16139833	     63.71093765
